<svg width="36" height="33" fill="none" xmlns="http://www.w3.org/2000/svg">
    <circle cx="7.5" cy="17" r="5.5" stroke="#DC3545" stroke-width="3"/>
    <path fill-rule="evenodd" clip-rule="evenodd" d="M16.43 1.05a3.66 3.66 0 015.14 0l12.86 12.86a3.63 3.63 0 010 5.15L21.57 31.92a3.6 3.6 0 01-5.14 0l-8.99-9c1-.15 1.93-.56 2.7-1.15l8.22 8.22a.9.9 0 001.28 0L32.5 17.13a.93.93 0 000-1.29L19.64 2.98a.98.98 0 00-1.28 0l-8.84 8.84A5.97 5.97 0 006.5 11h-.02l9.95-9.95zm-4.38 13.67a5.98 5.98 0 01.33 3.5h11.05l-5.6 5.79c-.7.66-.7 1.8 0 2.46.63.7 1.76.7 2.4 0l8.55-8.74c.7-.66.7-1.8 0-2.46l-8.55-8.74a1.62 1.62 0 00-2.4 0c-.7.66-.7 1.8 0 2.46l5.6 5.73H12.05z" fill="#DC3545"/>
</svg>
