<?xml version="1.0" encoding="utf-8"?>
<!-- Generator: Adobe Illustrator 17.0.0, SVG Export Plug-In . SVG Version: 6.00 Build 0)  -->
<!DOCTYPE svg PUBLIC "-//W3C//DTD SVG 1.1//EN" "http://www.w3.org/Graphics/SVG/1.1/DTD/svg11.dtd">
<svg version="1.1" id="Layer_1" xmlns="http://www.w3.org/2000/svg" xmlns:xlink="http://www.w3.org/1999/xlink" x="0px" y="0px"
	 width="1600px" height="400px" viewBox="0 0 1600 400" enable-background="new 0 0 1600 400" xml:space="preserve">
<path fill="#010101" d="M358.76,199.92c0.13,73.74-59.69,134.12-132.98,134.22c-74.24,0.1-134.49-59.56-134.6-133.29
	c-0.1-74.47,59.38-134.91,132.87-135.01C298.75,65.75,358.63,125.35,358.76,199.92z M252.32,305.6
	c15.92-0.02,31.43-3.69,45.35-10.74c54.01-27.34,74-95.5,43.52-148.4c-27.74-48.16-87.27-65.97-135.72-40.61
	c-43.8,22.92-65.85,74.32-52.58,122.55C165.49,274.18,206.03,305.66,252.32,305.6z"/>
<path fill="#010101" d="M710.3,264.75c0,18.05,0,35.69,0,53.49c-8.8,0-17.49,0-26.32,0c0-48.06,0-96.08,0-144.26
	c8.62,0,17.17,0,26.09,0c0,3.89,0,7.77,0,12.2c0.73-0.68,1-0.9,1.22-1.15c15.35-16.82,37.85-16.95,54.24-8.19
	c14.76,7.89,23.13,20.68,26.12,36.91c3.19,17.33-0.17,33.34-11.38,47.23c-13.9,17.22-39.05,22.81-57.71,12.98
	c-2.23-1.18-4.36-2.62-6.38-4.14C714.24,268.38,712.48,266.65,710.3,264.75z M766.08,224.64c-0.03-0.66-0.04-1.86-0.15-3.05
	c-0.09-0.96-0.23-1.93-0.44-2.88c-2.23-10.22-7.83-17.82-17.9-21.19c-10.14-3.41-19.88-2.13-28.15,5.09
	c-7.73,6.75-10.22,15.67-9.56,25.66c1.11,16.85,16.39,28.83,32.93,25.78C756.99,251.44,766.07,240.17,766.08,224.64z"/>
<path fill="#010101" d="M560.68,162.86c-6.35,6.66-12.23,12.81-18.23,19.1c-0.67-0.73-1.16-1.26-1.64-1.79
	c-8.74-9.84-19.3-16.28-32.56-18.04c-22.99-3.03-44.39,12.2-48.68,35c-2.75,14.63-0.35,28.23,9.63,39.71
	c10.07,11.59,23.22,15.92,38.25,14.49c14.55-1.39,25.99-8.67,35.42-19.98c6.34,5.79,12.65,11.55,19.09,17.43
	c-3.61,5.11-7.88,9.45-12.76,13.19c-15.98,12.28-34.11,17.53-54.14,16.1c-19.76-1.41-36.52-9.21-49.39-24.47
	c-11.38-13.5-16.2-29.45-16.03-46.9c0.2-20.58,7.09-38.56,22.34-52.73c15.79-14.67,34.77-20.45,56.09-18.74
	c16.17,1.29,30.68,6.93,42.95,17.69C554.6,156.05,557.67,159.73,560.68,162.86z"/>
<path fill="#010101" d="M648.41,185.86c0-4.28,0-7.99,0-11.86c8.39,0,16.63,0,24.99,0c0,34.08,0,68.05,0,102.15
	c-8.28,0-16.47,0-24.91,0c0-3.65,0-7.34,0-11.42c-0.62,0.43-0.94,0.57-1.16,0.8c-17.21,17.96-44.78,16.02-61.13,3.7
	c-11.24-8.47-17.7-19.88-20.05-33.59c-2.64-15.37-0.43-29.96,8.42-43.09c12.84-19.06,38.78-26.76,58.86-17.65
	c5.03,2.28,9.39,5.5,13.29,9.39C647.13,184.69,647.57,185.07,648.41,185.86z M648.91,224.86c-0.32-2.29-0.44-4.63-1-6.86
	c-2.75-11.03-9.33-18.71-20.5-21.54c-11.09-2.8-20.97-0.16-28.65,8.61c-6.06,6.92-7.87,15.21-6.89,24.26
	c1.7,15.76,15.84,27.09,31.46,25.1C638.32,252.53,648.83,240.32,648.91,224.86z"/>
<path fill="#010101" d="M1095.79,185.74c0-4.14,0-7.83,0-11.71c8.46,0,16.7,0,25.07,0c0,34.04,0,68.02,0,102.13
	c-8.28,0-16.48,0-24.91,0c0-3.61,0-7.24,0-11.22c-0.61,0.37-0.94,0.48-1.16,0.7c-19.63,20.54-55.82,16.19-72.35-8.05
	c-14.45-21.19-12.67-52.69,4.35-70.96c14.49-15.55,39-20.17,56.69-10.36c3.99,2.21,7.38,5.51,11.05,8.32
	C1094.85,184.84,1095.13,185.14,1095.79,185.74z M1039.01,225c0.21,1.93,0.34,3.87,0.64,5.78c3.42,21.52,28.94,31.42,45.78,17.6
	c9.26-7.6,12.18-17.81,10.22-29.41c-2.23-13.17-13.6-23.09-26.57-23.46C1051.83,195.01,1039.13,207.52,1039.01,225z"/>
<path fill="#010101" d="M1236.39,234.41c2.58,9.31,7.64,16.03,16.48,19.42c9.27,3.55,18.64,2.65,27.98,0.19
	c6.47-1.7,12.52-4.38,18.3-8.18c3.52,6.23,6.95,12.32,10.47,18.56c-4.76,3.58-9.87,6.28-15.3,8.42
	c-15.38,6.06-31.17,7.73-47.23,3.44c-20.36-5.44-32.38-19.05-36.39-39.49c-3.01-15.37-0.87-30.12,8.02-43.37
	c8.6-12.81,20.94-19.71,36.09-21.67c10.49-1.36,20.77-0.39,30.52,3.9c16.58,7.3,25.56,20.42,27.87,38.06
	c0.79,6.01,0.09,12.21,0.14,18.32c0.01,1.96-0.81,2.45-2.72,2.45c-23.77-0.07-47.55-0.04-71.32-0.04
	C1238.44,234.41,1237.56,234.41,1236.39,234.41z M1236.7,214.46c17.12,0,34.22,0,51.34,0c-1.68-13.1-12.49-21.65-26.77-21.19
	C1246.44,193.75,1238.08,205.16,1236.7,214.46z"/>
<path fill="#010101" d="M808.9,137.65c8.83,0,17.34,0,26.08,0c0,11.95,0,23.87,0,36.09c10.57,0,20.91,0,31.41,0
	c0,7.5,0,14.72,0,22.2c-10.32,0-20.67,0-31.15,0c-0.06,0.9-0.14,1.55-0.14,2.2c-0.01,12.64-0.05,25.27,0.03,37.91
	c0.02,2.6,0.26,5.24,0.8,7.78c1.51,7.12,5.77,10.63,13.06,10.81c2.91,0.07,5.84-0.07,8.73-0.39c2.88-0.32,5.71-0.99,8.68-1.53
	c0.04,0.34,0.14,0.76,0.14,1.18c0.01,6.88-0.01,13.76,0.02,20.64c0,1.16-0.12,1.91-1.51,2.24c-10.87,2.55-21.79,3.08-32.62,0.18
	c-12.83-3.43-19.89-12.41-22.39-25.09c-0.89-4.51-1.27-9.19-1.33-13.8c-0.17-13.08-0.06-26.17-0.06-39.26c0-0.82,0-1.64,0-2.71
	c-5.52,0-10.93,0-16.5,0c0-7.46,0-14.67,0-22.26c2.16,0,4.36,0,6.56,0c2.69,0,5.39-0.09,8.08,0.03c1.67,0.08,2.18-0.46,2.16-2.14
	c-0.07-10.47-0.04-20.94-0.04-31.41C808.9,139.51,808.9,138.7,808.9,137.65z"/>
<path fill="#010101" d="M1204.38,253.2c0,6.99,0.03,14.39-0.05,21.78c0,0.57-0.71,1.53-1.25,1.66c-11.9,2.82-23.86,3.49-35.58-0.59
	c-11.4-3.96-17.42-12.72-19.62-24.18c-0.94-4.88-1.28-9.94-1.35-14.92c-0.18-12.71-0.06-25.42-0.06-38.14c0-0.82,0-1.64,0-2.71
	c-5.51,0-10.92,0-16.48,0c0-7.46,0-14.68,0-22.19c5.44,0,10.92,0,16.66,0c0-12.22,0-24.14,0-36.2c8.83,0,17.4,0,26.19,0
	c0,11.9,0,23.83,0,36.04c10.57,0,20.91,0,31.4,0c0,7.5,0,14.71,0,22.19c-10.34,0-20.68,0-31.18,0c-0.05,0.98-0.12,1.7-0.12,2.43
	c0,12.56-0.05,25.12,0.03,37.69c0.02,2.6,0.25,5.24,0.79,7.78c1.53,7.13,5.79,10.82,13.07,10.75
	C1192.61,254.52,1198.39,253.7,1204.38,253.2z"/>
<path fill="#010101" d="M966.06,240.02c3.59-9.48,6.95-18.33,10.3-27.18c4.65-12.28,9.33-24.55,13.89-36.86
	c0.63-1.71,1.47-2.2,3.23-2.18c8,0.1,15.99,0.04,23.99,0.04c0.74,0,1.48,0,2.61,0c-0.35,0.92-0.57,1.58-0.85,2.22
	c-14.17,32.65-28.36,65.29-42.49,97.96c-0.69,1.6-1.5,2.22-3.3,2.17c-5.38-0.14-10.76,0.01-16.14-0.11
	c-0.81-0.02-2.04-0.69-2.33-1.38c-14.46-33.25-28.84-66.54-43.22-99.83c-0.09-0.2-0.11-0.42-0.22-0.85c0.68-0.06,1.3-0.17,1.92-0.17
	c8.3-0.01,16.59,0.04,24.89-0.05c1.66-0.02,2.29,0.62,2.85,2.06c7.82,20.33,15.69,40.65,23.55,60.96
	C965.09,237.71,965.46,238.57,966.06,240.02z"/>
<path fill="#010101" d="M903.93,276.23c-8.78,0-17.38,0-26.14,0c0-34.08,0-68.12,0-102.27c8.72,0,17.35,0,26.14,0
	C903.93,208.04,903.93,242.02,903.93,276.23z"/>
<path fill="#010101" d="M1331.67,259.81c4.31-0.31,8.31-0.61,12.45-0.91c0.13,0.36,0.28,0.68,0.35,1.02
	c1.22,6.11,7.75,8.88,13.1,5.54c1.76-1.1,2.82-2.7,2.8-4.81c-0.02-2.11-1.49-3.21-3.23-3.86c-3.21-1.2-6.49-2.2-9.7-3.4
	c-2.44-0.91-4.96-1.73-7.2-3.01c-10.91-6.23-11.03-20.74-0.17-27.09c7.17-4.19,14.81-4.47,22.39-1.26
	c6.57,2.78,10.63,9.58,10.01,16.29c-4.01,0.29-8.07,0.58-12.27,0.88c-0.15-0.61-0.27-1.09-0.38-1.57
	c-1.12-5.03-6.47-7.38-11.01-4.79c-1.79,1.02-2.99,2.53-2.94,4.69c0.05,2.05,1.57,3,3.23,3.58c3.3,1.17,6.69,2.1,9.96,3.33
	c2.71,1.02,5.5,2.03,7.91,3.58c9.49,6.13,9.8,20.13,0.35,26.3c-8.68,5.67-18.08,5.92-27.22,1.03
	C1334.17,272.22,1331.81,266.66,1331.67,259.81z"/>
<path fill="#010101" d="M1433.51,239.98c5.37-3.84,10.95-5.42,17.18-3.8c7.03,1.84,11.61,7.48,11.89,15.55
	c0.31,8.65,0.07,17.33,0.07,26.18c-4.04,0-8.03,0-12.35,0c0-0.76,0-1.55,0-2.35c0-6.13,0-12.26,0-18.39c0-0.9,0-1.79-0.07-2.69
	c-0.33-4.67-3.32-7.49-7.84-7.43c-4.3,0.07-7.35,3.03-7.45,7.6c-0.14,6.8-0.05,13.6-0.06,20.41c0,0.89,0,1.78,0,2.84
	c-4.11,0-8.1,0-12.24,0c0-13.85,0-27.72,0-41.93c2.84,0,5.64-0.06,8.44,0.06c0.42,0.02,0.88,0.85,1.19,1.38
	C1432.72,238.19,1433.05,239.02,1433.51,239.98z"/>
<path fill="#010101" d="M1375.21,235.97c4.14,0,8.01-0.09,11.88,0.09c0.69,0.03,1.64,1.09,1.92,1.87c2.62,7.22,5.12,14.5,7.66,21.75
	c0.22,0.61,0.46,1.22,0.84,2.21c2.21-6.27,4.26-12.18,6.37-18.06c0.92-2.59,1.26-6.07,3.11-7.45c1.76-1.3,5.17-0.37,7.86-0.4
	c1.55-0.02,3.09,0,4.86,0c-0.28,0.88-0.45,1.52-0.69,2.12c-5.33,13.3-10.62,26.62-16.04,39.89c-1.24,3.02-2.75,5.99-4.54,8.71
	c-3.77,5.7-8.99,7.56-15.89,5.99c0-3.38,0-6.79,0-10.37c2.77-0.22,5.42-0.79,7.15-3.34c1.01-1.51,1.41-2.84,0.64-4.74
	c-4.86-11.96-9.57-23.99-14.32-35.99C1375.76,237.55,1375.53,236.87,1375.21,235.97z"/>
<path fill="#010101" d="M1508.81,251.56c-3.72,0.3-7.43,0.65-11.14,0.84c-0.52,0.03-1.28-0.58-1.59-1.1
	c-2.25-3.68-4.9-5.14-8.66-4.62c-3.43,0.48-6.34,3.31-7.24,7.08c-0.75,3.16-0.61,6.26,0.96,9.14c1.63,3,4.23,4.61,7.65,4.65
	c3.31,0.04,5.6-1.68,7.22-4.5c0.34-0.58,1.14-1.3,1.7-1.28c3.65,0.14,7.3,0.48,10.94,0.74c-0.69,9-9.8,16.51-19.88,16.48
	c-11.41-0.03-20.46-8.8-21.26-20.62c-0.79-11.6,7.3-21.52,18.87-23.12C1496.96,233.79,1506.49,240.65,1508.81,251.56z"/>
<path fill="#010101" d="M890.72,162.34c-9.26-0.05-16.22-7.17-16.15-16.48c0.07-9.13,7.13-16.01,16.4-15.98
	c9.34,0.03,16.38,7.09,16.27,16.34C907.13,155.5,900.07,162.4,890.72,162.34z"/>
<path fill="#FFFFFF" d="M252.32,305.6c-46.29,0.06-86.83-31.42-99.43-77.21c-13.27-48.23,8.78-99.62,52.58-122.55
	c48.46-25.35,107.97-7.55,135.72,40.61c30.48,52.9,10.49,121.06-43.52,148.4C283.75,301.91,268.24,305.58,252.32,305.6z
	 M267.6,284.19c13.07-0.04,23.55-2.09,33.59-6.34c44.61-18.89,63.78-73.2,41.31-117.04c-20.77-40.53-69.32-56.58-109.23-36.1
	c-34.47,17.69-52.4,58.15-42.67,96.29C200.12,258.29,232.38,284.03,267.6,284.19z"/>
<path fill="#FFFFFF" d="M766.08,224.64c-0.01,15.53-9.09,26.8-23.27,29.41c-16.54,3.04-31.82-8.93-32.93-25.78
	c-0.66-10,1.83-18.92,9.56-25.66c8.27-7.22,18-8.49,28.15-5.09c10.06,3.38,15.67,10.97,17.9,21.19c0.21,0.95,0.35,1.91,0.44,2.88
	C766.04,222.77,766.05,223.97,766.08,224.64z"/>
<path fill="#FFFFFF" d="M648.91,224.86c-0.09,15.45-10.6,27.67-25.58,29.57c-15.62,1.98-29.76-9.35-31.46-25.1
	c-0.97-9.05,0.84-17.34,6.89-24.26c7.68-8.77,17.56-11.41,28.65-8.61c11.17,2.82,17.75,10.5,20.5,21.54
	C648.47,220.23,648.59,222.58,648.91,224.86z"/>
<path fill="#FFFFFF" d="M1039.01,225c0.12-17.48,12.82-29.99,30.07-29.49c12.97,0.37,24.35,10.29,26.57,23.46
	c1.96,11.6-0.96,21.81-10.22,29.41c-16.84,13.82-42.36,3.92-45.78-17.6C1039.35,228.87,1039.22,226.93,1039.01,225z"/>
<path fill="#FFFFFF" d="M1236.7,214.46c1.38-9.31,9.74-20.72,24.57-21.19c14.28-0.46,25.09,8.09,26.77,21.19
	C1270.92,214.46,1253.82,214.46,1236.7,214.46z"/>
<path fill="#010101" d="M267.6,284.19c-35.22-0.15-67.48-25.9-76.99-63.18c-9.73-38.14,8.2-78.6,42.67-96.29
	c39.91-20.48,88.45-4.43,109.23,36.1c22.46,43.83,3.29,98.14-41.31,117.04C291.15,282.1,280.67,284.15,267.6,284.19z M348.95,203.16
	c-0.06-14.45-2.77-24.95-8.28-34.73c-19.97-35.48-66.98-40.61-93.93-10.27c-21.48,24.19-20.62,62.58,1.93,85.76
	c19.35,19.89,48.66,23.75,71.76,8.89C339.53,240.54,348.28,222.32,348.95,203.16z"/>
<path fill="#FFFFFF" d="M348.95,203.16c-0.67,19.15-9.43,37.38-28.52,49.66c-23.11,14.86-52.41,11-71.76-8.89
	c-22.55-23.18-23.41-61.57-1.93-85.76c26.95-30.35,73.95-25.21,93.93,10.27C346.18,178.21,348.9,188.72,348.95,203.16z
	 M260.67,178.31c13.54,0.49,20.66,11.52,20.93,21.06c0.26,9.1-5.84,21.45-20.74,22.39c0.18,0.44,0.31,0.85,0.51,1.23
	c9.91,19.08,33.09,27.92,53.08,20.27c22.68-8.69,34.41-34.86,26.33-58.7c-8.08-23.81-32.99-36.38-55.78-28.04
	C274.14,160.49,266.25,167.89,260.67,178.31z"/>
<path fill="#010101" d="M260.67,178.31c5.59-10.43,13.48-17.82,24.33-21.79c22.79-8.34,47.71,4.23,55.78,28.04
	c8.08,23.84-3.65,50.01-26.33,58.7c-19.99,7.66-43.17-1.19-53.08-20.27c-0.2-0.38-0.33-0.79-0.51-1.23
	c14.9-0.93,21-13.29,20.74-22.39C281.33,189.83,274.21,178.81,260.67,178.31z"/>
</svg>
